Coordinates
version=1
nRows=61
nColumns=4
inDegrees=yes

Units are S.I. units (second, meters, Newtons, ...)
Angles are in degrees.

endheader
time	joint_1	joint_2	transX
      0.00000000	    241.79718359	   -114.59155903	      0.00000000
      0.01666667	    241.79721942	   -114.59155903	      0.00000000
      0.03333333	    241.79729097	   -114.59155903	      0.00000000
      0.05000000	    241.79739810	   -114.59155903	      0.00000000
      0.06666667	    241.79754068	   -114.59155903	      0.00000000
      0.08333333	    241.79771858	   -114.59155903	      0.00000000
      0.10000000	    241.79793169	   -114.59155903	      0.00000000
      0.11666667	    241.79817987	   -114.59155903	      0.00000000
      0.13333333	    241.79846300	   -114.59155903	      0.00000000
      0.15000000	    241.79878096	   -114.59155903	      0.00000000
      0.16666667	    241.79913362	   -114.59155903	      0.00000000
      0.18333333	    241.79952085	   -114.59155903	      0.00000000
      0.20000000	    241.79994254	   -114.59155903	      0.00000000
      0.21666667	    241.80039855	   -114.59155903	      0.00000000
      0.23333333	    241.80088878	   -114.59155903	      0.00000000
      0.25000000	    241.80141309	   -114.59155903	      0.00000000
      0.26666667	    241.80197136	   -114.59155903	      0.00000000
      0.28333333	    241.80256347	   -114.59155903	      0.00000000
      0.30000000	    241.80322522	   -114.59155903	      0.00000000
      0.31666667	    241.80388429	   -114.59155903	      0.00000000
      0.33333333	    241.80454068	   -114.59155903	      0.00000000
      0.35000000	    241.80519441	   -114.59155903	      0.00000000
      0.36666667	    241.80584549	   -114.59155903	      0.00000000
      0.38333333	    241.80649394	   -114.59155903	      0.00000000
      0.40000000	    241.80713975	   -114.59155903	      0.00000000
      0.41666667	    241.80778294	   -114.59155903	      0.00000000
      0.43333333	    241.80842353	   -114.59155903	      0.00000000
      0.45000000	    241.80906151	   -114.59155903	      0.00000000
      0.46666667	    241.80969690	   -114.59155903	      0.00000000
      0.48333333	    241.81032972	   -114.59155903	      0.00000000
      0.50000000	    241.81095996	   -114.59155903	      0.00000000
      0.51666667	    241.81158827	   -114.59155903	      0.00000000
      0.53333333	    241.81221466	   -114.59155903	      0.00000000
      0.55000000	    241.81283912	   -114.59155903	      0.00000000
      0.56666667	    241.81346167	   -114.59155903	      0.00000000
      0.58333333	    241.81408231	   -114.59155903	      0.00000000
      0.60000000	    241.81470104	   -114.59155903	      0.00000000
      0.61666667	    241.81531788	   -114.59155903	      0.00000000
      0.63333333	    241.81593283	   -114.59155903	      0.00000000
      0.65000000	    241.81654589	   -114.59155903	      0.00000000
      0.66666667	    241.81715707	   -114.59155903	      0.00000000
      0.68333333	    241.81776638	   -114.59155903	      0.00000000
      0.70000000	    241.81837382	   -114.59155903	      0.00000000
      0.71666667	    241.81897941	   -114.59155903	      0.00000000
      0.73333333	    241.81958313	   -114.59155903	      0.00000000
      0.75000000	    241.82018501	   -114.59155903	      0.00000000
      0.76666667	    241.82078505	   -114.59155903	      0.00000000
      0.78333333	    241.82138324	   -114.59155903	      0.00000000
      0.80000000	    241.82197961	   -114.59155903	      0.00000000
      0.81666667	    241.82257382	   -114.59155903	      0.00000000
      0.83333333	    241.82316589	   -114.59155903	      0.00000000
      0.85000000	    241.82375582	   -114.59155903	      0.00000000
      0.86666667	    241.82434362	   -114.59155903	      0.00000000
      0.88333333	    241.82492930	   -114.59155903	      0.00000000
      0.90000000	    241.82551287	   -114.59155903	      0.00000000
      0.91666667	    241.82609432	   -114.59155903	      0.00000000
      0.93333333	    241.82667369	   -114.59155903	      0.00000000
      0.95000000	    241.82725095	   -114.59155903	      0.00000000
      0.96666667	    241.82782614	   -114.59155903	      0.00000000
      0.98333333	    241.82839925	   -114.59155903	      0.00000000
      1.00000000	    241.82896871	   -114.59155903	      0.00000000
